<?xml version="1.0" standalone="no"?>
<!DOCTYPE svg PUBLIC "-//W3C//DTD SVG 20010904//EN"
 "http://www.w3.org/TR/2001/REC-SVG-20010904/DTD/svg10.dtd">
<svg version="1.0" xmlns="http://www.w3.org/2000/svg"
 width="550.000000pt" height="550.000000pt" viewBox="0 0 550.000000 550.000000"
 preserveAspectRatio="xMidYMid meet">
<metadata>
Created by potrace 1.14, written by Peter Selinger 2001-2017
</metadata>
<g transform="translate(0.000000,550.000000) scale(0.100000,-0.100000)"
fill="#000000" stroke="none">
<path d="M3064 5391 c-76 -46 -143 -155 -162 -261 -11 -67 -5 -256 13 -360 20
-117 5 -194 -41 -211 -34 -12 -93 22 -172 101 -139 138 -155 215 -87 425 44
137 50 211 21 244 -22 24 -56 27 -94 7 -32 -17 -117 -153 -138 -222 -28 -93
-3 -302 48 -393 69 -125 239 -321 309 -356 75 -39 107 -73 129 -140 26 -80 83
-168 141 -220 24 -22 68 -64 97 -94 50 -51 54 -53 105 -52 63 0 132 20 191 55
115 67 183 227 152 360 -14 58 -13 68 4 120 14 44 43 65 151 112 118 52 180
52 270 2 110 -62 190 -66 225 -13 21 32 14 110 -13 136 -10 10 -59 32 -108 48
-50 16 -110 37 -135 46 -32 12 -63 16 -110 12 -81 -7 -136 -25 -276 -93 -61
-30 -120 -54 -132 -54 -30 0 -63 35 -55 57 32 93 117 239 172 296 41 44 123
88 194 106 95 23 136 72 117 140 -30 114 -243 88 -378 -46 -70 -69 -108 -127
-201 -303 -68 -128 -112 -190 -136 -190 -20 0 -75 65 -85 101 -6 19 -13 86
-16 150 -8 144 5 191 75 270 64 72 84 113 77 154 -13 67 -93 102 -152 66z"/>
<path d="M1501 2960 c-248 -83 -323 -405 -136 -584 176 -169 458 -117 564 104
22 47 26 68 26 145 0 77 -4 98 -27 147 -75 160 -263 243 -427 188z"/>
<path d="M2539 2331 c-19 -9 -63 -40 -98 -68 -65 -53 -238 -146 -659 -356
-205 -102 -246 -125 -263 -154 -30 -48 -21 -102 37 -233 25 -58 57 -134 71
-170 25 -63 203 -575 207 -595 1 -5 10 -37 20 -70 30 -97 29 -129 -2 -160 -15
-15 -54 -41 -87 -57 -89 -46 -198 -130 -211 -164 -15 -42 0 -92 33 -105 40
-15 89 0 155 48 33 25 99 68 145 95 102 60 168 124 184 178 16 53 0 187 -34
290 -23 68 -44 141 -52 180 -2 8 -13 54 -24 103 -18 74 -29 128 -57 262 -17
82 -26 157 -21 177 8 30 78 72 248 149 74 33 171 78 217 100 45 21 96 39 113
39 18 0 57 -15 88 -33 31 -18 78 -44 104 -58 27 -13 62 -39 78 -57 25 -28 29
-40 24 -70 -9 -58 -95 -201 -200 -332 -114 -143 -117 -201 -13 -310 119 -126
317 -337 345 -369 26 -29 33 -45 33 -79 0 -39 -6 -48 -81 -130 -92 -97 -129
-164 -123 -219 5 -56 26 -69 102 -64 23 1 71 46 263 249 119 126 140 178 102
250 -10 17 -74 96 -143 174 -215 244 -242 286 -220 344 6 16 64 103 128 194
326 463 364 522 365 569 1 53 -23 79 -127 132 -152 79 -331 181 -438 251 -125
81 -160 93 -209 69z"/>
</g>
</svg>
